<mxfile host="app.diagrams.net" agent="Mozilla/5.0 (Windows NT 10.0; Win64; x64) AppleWebKit/537.36 (KHTML, like Gecko) Chrome/130.0.0.0 YaBrowser/24.12.0.0 Safari/537.36" version="26.0.9">
  <diagram name="Страница — 1" id="rBu6nEsF3qoUqglLJa1z">
    <mxGraphModel dx="1050" dy="575" grid="1" gridSize="10" guides="1" tooltips="1" connect="1" arrows="1" fold="1" page="1" pageScale="1" pageWidth="827" pageHeight="1169" math="0" shadow="0">
      <root>
        <mxCell id="0" />
        <mxCell id="1" parent="0" />
        <mxCell id="CFHKE_0sE5I3-X5ZzncZ-2" style="edgeStyle=orthogonalEdgeStyle;rounded=0;orthogonalLoop=1;jettySize=auto;html=1;" edge="1" parent="1" source="CFHKE_0sE5I3-X5ZzncZ-1" target="CFHKE_0sE5I3-X5ZzncZ-3">
          <mxGeometry relative="1" as="geometry">
            <mxPoint x="100" y="90" as="targetPoint" />
          </mxGeometry>
        </mxCell>
        <mxCell id="CFHKE_0sE5I3-X5ZzncZ-1" value="начало" style="ellipse;whiteSpace=wrap;html=1;" vertex="1" parent="1">
          <mxGeometry x="40" width="120" height="60" as="geometry" />
        </mxCell>
        <mxCell id="CFHKE_0sE5I3-X5ZzncZ-4" style="edgeStyle=orthogonalEdgeStyle;rounded=0;orthogonalLoop=1;jettySize=auto;html=1;" edge="1" parent="1" source="CFHKE_0sE5I3-X5ZzncZ-3" target="CFHKE_0sE5I3-X5ZzncZ-5">
          <mxGeometry relative="1" as="geometry">
            <mxPoint x="100" y="160" as="targetPoint" />
          </mxGeometry>
        </mxCell>
        <mxCell id="CFHKE_0sE5I3-X5ZzncZ-3" value="&lt;div&gt;LockDrawing;&lt;span style=&quot;background-color: transparent; color: light-dark(rgb(0, 0, 0), rgb(255, 255, 255));&quot;&gt;&amp;nbsp; SetWindowSize(500, 500)&lt;/span&gt;&lt;/div&gt;" style="rounded=0;whiteSpace=wrap;html=1;" vertex="1" parent="1">
          <mxGeometry x="40" y="80" width="120" height="60" as="geometry" />
        </mxCell>
        <mxCell id="CFHKE_0sE5I3-X5ZzncZ-6" style="edgeStyle=orthogonalEdgeStyle;rounded=0;orthogonalLoop=1;jettySize=auto;html=1;" edge="1" parent="1" source="CFHKE_0sE5I3-X5ZzncZ-5" target="CFHKE_0sE5I3-X5ZzncZ-7">
          <mxGeometry relative="1" as="geometry">
            <mxPoint x="100" y="240" as="targetPoint" />
          </mxGeometry>
        </mxCell>
        <mxCell id="CFHKE_0sE5I3-X5ZzncZ-5" value="&lt;div&gt;x:=100;&amp;nbsp;&lt;span style=&quot;background-color: transparent; color: light-dark(rgb(0, 0, 0), rgb(255, 255, 255));&quot;&gt;y:=100;&lt;/span&gt;&lt;/div&gt;&lt;div&gt;&lt;span style=&quot;background-color: transparent;&quot;&gt;&lt;div style=&quot;&quot;&gt;step:=10;&amp;nbsp;&lt;span style=&quot;background-color: transparent; color: light-dark(rgb(0, 0, 0), rgb(255, 255, 255));&quot;&gt;depth:=2;&lt;/span&gt;&lt;/div&gt;&lt;/span&gt;&lt;/div&gt;" style="rounded=0;whiteSpace=wrap;html=1;" vertex="1" parent="1">
          <mxGeometry x="40" y="160" width="120" height="60" as="geometry" />
        </mxCell>
        <mxCell id="CFHKE_0sE5I3-X5ZzncZ-8" style="edgeStyle=orthogonalEdgeStyle;rounded=0;orthogonalLoop=1;jettySize=auto;html=1;" edge="1" parent="1" source="CFHKE_0sE5I3-X5ZzncZ-7" target="CFHKE_0sE5I3-X5ZzncZ-9">
          <mxGeometry relative="1" as="geometry">
            <mxPoint x="100" y="310" as="targetPoint" />
          </mxGeometry>
        </mxCell>
        <mxCell id="CFHKE_0sE5I3-X5ZzncZ-7" value="Цикл 1&lt;div&gt;until False&lt;/div&gt;" style="shape=loopLimit;whiteSpace=wrap;html=1;" vertex="1" parent="1">
          <mxGeometry x="40" y="240" width="120" height="40" as="geometry" />
        </mxCell>
        <mxCell id="CFHKE_0sE5I3-X5ZzncZ-10" style="edgeStyle=orthogonalEdgeStyle;rounded=0;orthogonalLoop=1;jettySize=auto;html=1;" edge="1" parent="1" source="CFHKE_0sE5I3-X5ZzncZ-9" target="CFHKE_0sE5I3-X5ZzncZ-11">
          <mxGeometry relative="1" as="geometry">
            <mxPoint x="100" y="400" as="targetPoint" />
          </mxGeometry>
        </mxCell>
        <mxCell id="CFHKE_0sE5I3-X5ZzncZ-9" value="&lt;div&gt;&amp;nbsp;Window.Clear;&amp;nbsp; &amp;nbsp;&lt;span style=&quot;background-color: transparent; color: light-dark(rgb(0, 0, 0), rgb(255, 255, 255));&quot;&gt;MoveTo(x, y);&lt;/span&gt;&lt;/div&gt;" style="shape=parallelogram;perimeter=parallelogramPerimeter;whiteSpace=wrap;html=1;fixedSize=1;" vertex="1" parent="1">
          <mxGeometry x="40" y="310" width="120" height="60" as="geometry" />
        </mxCell>
        <mxCell id="CFHKE_0sE5I3-X5ZzncZ-11" value="" style="rounded=0;whiteSpace=wrap;html=1;" vertex="1" parent="1">
          <mxGeometry x="30" y="400" width="140" height="50" as="geometry" />
        </mxCell>
        <mxCell id="CFHKE_0sE5I3-X5ZzncZ-16" style="edgeStyle=orthogonalEdgeStyle;rounded=0;orthogonalLoop=1;jettySize=auto;html=1;exitX=0.5;exitY=1;exitDx=0;exitDy=0;entryX=0.5;entryY=0;entryDx=0;entryDy=0;" edge="1" parent="1" source="CFHKE_0sE5I3-X5ZzncZ-12" target="CFHKE_0sE5I3-X5ZzncZ-15">
          <mxGeometry relative="1" as="geometry" />
        </mxCell>
        <mxCell id="CFHKE_0sE5I3-X5ZzncZ-12" value="Fractal(depth, -1);" style="rounded=0;whiteSpace=wrap;html=1;" vertex="1" parent="1">
          <mxGeometry x="40" y="400" width="120" height="50" as="geometry" />
        </mxCell>
        <mxCell id="CFHKE_0sE5I3-X5ZzncZ-14" value="" style="rounded=0;whiteSpace=wrap;html=1;" vertex="1" parent="1">
          <mxGeometry x="30" y="470" width="140" height="50" as="geometry" />
        </mxCell>
        <mxCell id="CFHKE_0sE5I3-X5ZzncZ-17" style="edgeStyle=orthogonalEdgeStyle;rounded=0;orthogonalLoop=1;jettySize=auto;html=1;" edge="1" parent="1" source="CFHKE_0sE5I3-X5ZzncZ-15" target="CFHKE_0sE5I3-X5ZzncZ-18">
          <mxGeometry relative="1" as="geometry">
            <mxPoint x="100" y="540" as="targetPoint" />
          </mxGeometry>
        </mxCell>
        <mxCell id="CFHKE_0sE5I3-X5ZzncZ-15" value="&lt;div&gt;onKeyDown:=dvizh;&lt;/div&gt;&lt;div&gt;&amp;nbsp; onKeyUp :=glub;&lt;/div&gt;&lt;div&gt;onKeyPress:=maschtab;&lt;/div&gt;" style="rounded=0;whiteSpace=wrap;html=1;" vertex="1" parent="1">
          <mxGeometry x="40" y="470" width="120" height="50" as="geometry" />
        </mxCell>
        <mxCell id="CFHKE_0sE5I3-X5ZzncZ-19" style="edgeStyle=orthogonalEdgeStyle;rounded=0;orthogonalLoop=1;jettySize=auto;html=1;" edge="1" parent="1" source="CFHKE_0sE5I3-X5ZzncZ-18" target="CFHKE_0sE5I3-X5ZzncZ-20">
          <mxGeometry relative="1" as="geometry">
            <mxPoint x="100" y="620" as="targetPoint" />
          </mxGeometry>
        </mxCell>
        <mxCell id="CFHKE_0sE5I3-X5ZzncZ-18" value="&lt;div&gt;redraw;&lt;/div&gt;&lt;div&gt;sleep(1);&lt;/div&gt;" style="rounded=0;whiteSpace=wrap;html=1;" vertex="1" parent="1">
          <mxGeometry x="40" y="540" width="120" height="50" as="geometry" />
        </mxCell>
        <mxCell id="CFHKE_0sE5I3-X5ZzncZ-21" style="edgeStyle=orthogonalEdgeStyle;rounded=0;orthogonalLoop=1;jettySize=auto;html=1;" edge="1" parent="1" source="CFHKE_0sE5I3-X5ZzncZ-20" target="CFHKE_0sE5I3-X5ZzncZ-22">
          <mxGeometry relative="1" as="geometry">
            <mxPoint x="100" y="680" as="targetPoint" />
          </mxGeometry>
        </mxCell>
        <mxCell id="CFHKE_0sE5I3-X5ZzncZ-20" value="Цикл 1" style="shape=loopLimit;whiteSpace=wrap;html=1;direction=west;" vertex="1" parent="1">
          <mxGeometry x="40" y="610" width="120" height="40" as="geometry" />
        </mxCell>
        <mxCell id="CFHKE_0sE5I3-X5ZzncZ-22" value="конец" style="ellipse;whiteSpace=wrap;html=1;" vertex="1" parent="1">
          <mxGeometry x="40" y="680" width="120" height="60" as="geometry" />
        </mxCell>
      </root>
    </mxGraphModel>
  </diagram>
</mxfile>
